# xmcd
#
# Track frame offsets: 
#        150
#        16692
#        34175
#        57342
#        76470
#        93752
#        114817
#        135302
#        153992
#        169297
#        195927
#        217660
#        233682
#        251942
#        273865
#        289675
#        310235
#        331067
#
# Disc length: 4680 seconds
#
# Revision: 10
# Processed by: cddbd v1.5.2PL0 Copyright (c) Steve Scherf et al.
# Submitted via: ExactAudioCopyFreeDBPlugin 1.0
#
DISCID=dd124612
DTITLE=Falco - 1996 - Falco - Greatest Hits
DYEAR=1996
DGENRE=Austropop
TTITLE0=Mutter der Mann mit dem Koks ist da
TTITLE1=Der Kommissar
TTITLE2=Ganz Wien
TTITLE3=Auf der Flucht
TTITLE4=Brillantin' Brutal
TTITLE5=Data De Groove
TTITLE6=Junge Römer
TTITLE7=Helden von Heute
TTITLE8=Rock me Amadeus
TTITLE9=Jeanny
TTITLE10=Emotional
TTITLE11=No answer
TTITLE12=Vienna Calling
TTITLE13=Sound of Musik
TTITLE14=Wiener Blut
TTITLE15=Zuviel Hitze
TTITLE16=Nie mehr Schule
TTITLE17=Pusher
EXTD=YEAR: 1996
EXTT0=
EXTT1=
EXTT2=
EXTT3=
EXTT4=
EXTT5=
EXTT6=
EXTT7=
EXTT8=
EXTT9=
EXTT10=
EXTT11=
EXTT12=
EXTT13=
EXTT14=
EXTT15=
EXTT16=
EXTT17=
PLAYORDER=
